# xmcd
#
# Track frame offsets:
#	150
#	20556
#	50451
#	75666
#	97599
#	119228
#	135409
#	174275
#	203719
#	220196
#	238033
#	258156
#
# Disc length: 3755 seconds
#
# Revision: 2161053397
# Processed by: cddbd v1.5.2PL0 Copyright (c) Steve Scherf et al.
# Submitted via: EZCDAudioConverter 9.0.4.1
#
DISCID=990ea90c
DTITLE=Various Artist - Tangled Up in Blues- Songs of Bob Dylan
DYEAR=1999
DGENRE=Blues
TTITLE0=Taj Mahal - It Takes a Lot to Laugh -It Takes a Train to Cry
TTITLE1=Mavis Staples - Gotta Serve Somebody
TTITLE2=Isaac Hayes - Lay Lady Lay
TTITLE3=RL Burnside - Everything Is Broken
TTITLE4=Luther 'Guitar JR' Jonhson - Pledging My Time
TTITLE5=John Hammond - I'll Be Your Baby Tonight
TTITLE6=James Solberg - Ballad of a Thin Man
TTITLE7=Alvin .Youngblood' Hart - Million Miles
TTITLE8=Leon Russell - Watching the River Flow
TTITLE9=The Holmes Brothers - Wallflower
TTITLE10=Larry McCray - All Along the Watchtower
TTITLE11=The Band - One Too Many Mornings
EXTD=
EXTT0=
EXTT1=
EXTT2=
EXTT3=
EXTT4=
EXTT5=
EXTT6=
EXTT7=
EXTT8=
EXTT9=
EXTT10=
EXTT11=
PLAYORDER=
